# xmcd
#
# Track frame offsets:
# 150
# 19387
# 40087
# 59602
# 77742
# 94510
# 117865
# 139487
# 163932
# 185162
# 201985
# 219487
#
# Disc length: 3230 seconds
#
# Revision: 0
# Processed by: cddbd v1.4PL0 Copyright (c) Steve Scherf et al.
# Submitted via: Axialis_AX_CDPlayer 2.6
#
DISCID=b40c9c0c
DTITLE=Helmut Nowak - Die Maenner
DYEAR=1900
DGENRE=
TTITLE0=Was ein Mann alles kann
TTITLE1=Für Sonja
TTITLE2=Für Ambros
TTITLE3=Für mei Katz'
TTITLE4=Du und i
TTITLE5=Ich vermiss Dich
TTITLE6=Geh no net zhaus
TTITLE7=Casa Nowak
TTITLE8=Waidring
TTITLE9=Petraki
TTITLE10=Bitte geh
TTITLE11=Pronay
EXTD=
EXTT0=
EXTT1=
EXTT2=
EXTT3=
EXTT4=
EXTT5=
EXTT6=
EXTT7=
EXTT8=
EXTT9=
EXTT10=
EXTT11=
PLAYORDER=
